<svg version="1" xmlns="http://www.w3.org/2000/svg" width="933.333" height="933.333" viewBox="0 0 700.000000 700.000000"><path d="M189.2 1.2c-2.7 2.7 0 15 6 27.6 6.4 13.5 11.9 13.9 11.9.8 0-8.8-2.2-16.2-6.8-22.4-4.8-6.4-8.6-8.5-11.1-6z"/><path d="M167.7 4.7c-1.5 1.4-.6 5.1 2.4 9.9 4.6 7.2 9.8 13.4 13.3 15.6 2.7 1.7 2.8 1.9.6 1.3-3-.9-6.3-2.7-10.7-5.9-5.4-3.9-17.5-4.5-20.4-1-3.1 3.7 4.7 6.7 18.3 6.8 11.4.2 14.4.9 7.7 2-7.5 1.2-14.4 5.8-17.4 11.6-1.3 2.5-1.3 3 0 4.4 1.8 1.8 5.3 1 13.1-3 9.1-4.6 14.2-11.1 10.2-12.7-.7-.3-.8-.6-.3-.6.6 0 4.2 1.5 8 3.3l7 3.3-4 .8c-7.4 1.3-12.3 3.7-17.8 8.6-8.5 7.5-10.4 14.9-3.5 13.4C183.5 60.4 202 48 202 43.8c0-2.5 1.2-2.3 7.2 1.4l5.2 3.2-6.3 1.3c-8.2 1.7-15.1 5.5-20.7 11.5-9.4 10.1-2.8 12.3 13.1 4.4 10.1-5 16.2-9.7 16.7-12.6.3-1.9.8-1.7 5.7 2 2.9 2.2 5.1 4 5 4.1-.2 0-2.8.3-5.7.5-6.7.5-13.2 3.4-17.7 8-6.6 6.5-3.5 9.7 7.6 7.6 7.6-1.4 16.5-5.9 18.7-9.4l1.8-2.9 2.5 2.3c5.3 5.1 5.4 5.7 1.1 5.6-5.3-.1-10.4 1.7-13.1 4.6l-2.3 2.4 2 2c1.7 1.7 3.1 2 7 1.7 5.9-.4 12-2.8 12.8-5 1-2.4 2-1.8 5.7 3.4l3.5 4.8-4-1c-4.6-1.1-9.1.4-8.6 2.9.5 2.7 7.5 4.9 11.8 3.7 3.4-.9 3.8-.8 4.8 1.6 9 21.9 11.6 28.8 14.6 38.5 8.6 28.2 10.3 54.8 5.1 79.7-2.1 9.9-6.6 24.9-7.5 24.9-1.2 0-11.5-11.4-15-16.5-2.8-4.1-2.9-4.5-1.2-4.5 4.2 0 7.7-14.8 4.1-17.1-3.1-1.9-9.1 8.5-7.5 12.8.3.8.1 1.1-.4.8-.6-.4-2.6-3.8-4.5-7.6L240 196h2.9c7.3 0 16.6-17 12.2-22.4-3.9-4.7-16 8.2-16.1 17.1-.1 2.4-.2 2.6-1.1 1-.6-1-2.3-4.9-3.9-8.7-2.4-5.8-2.6-6.7-1.1-5.8 3.1 1.9 7.3-.1 13.1-6 6.9-7 10.4-14 10.5-20.6 0-5.6-1.6-7.3-6.1-6.2-7 1.8-19.4 19.3-19.4 27.6-.1 3-.6 2.3-4-5.9-2.2-5.2-4-9.5-4-9.7 0-.2 1.1.1 2.4.6 6.5 2.4 21.2-14.7 25-29.2 1.4-5.5 1.4-7.6.1-11.9-1.1-3.3-5.6-2.4-9.7 1.8-7.4 7.7-16.5 25-17.2 32.5-.5 5.3-1.2 5.6-2.6 1.1-2.3-7-14.5-30.8-19.2-37.5-1-1.5-2.7-5.2-3.7-8.1-2.7-8.3-8.8-14.8-16.3-17.4-3.6-1.2-4.3-1.2-5.6 0-1.2 1.3-1.2 1.8.1 4.3 2.9 5.6 14.3 15.7 18.9 16.9 1.5.4 3.7 2.3 5.1 4.3 3.4 5.3 9.4 16.2 10.7 19.6l1 2.8-3.1-2.6c-6.6-5.6-22.5-7.6-32.9-4.1-5.4 1.8-8.6 5.1-7 7 2.3 2.8 25 7 34.1 6.3 5.7-.4 10.5-3 9.3-4.9-.3-.5-.3-.9 0-.9.6 0 2.3 3.6 6.2 13.4 2.8 7 3 7.8.8 4.8-1.9-2.7-9.2-6.5-15.7-8.1-4.4-1.1-16.9-1.6-20.7-.8-3.3.6-7.9 3-8.4 4.3-2.9 7.4 35.9 15.8 44.4 9.6l2.6-2 2.8 7.2c1.6 3.9 3.1 7.7 3.4 8.5.3.7-1.4-.1-3.8-1.8-12.6-9.1-36.5-8.5-33.5.8.3 1 2.2 3 4.3 4.5 10.8 7.4 31 8.9 33.9 2.4.8-1.8 1.3-1.1 3.8 5.3 1.7 4.1 3.2 7.8 3.4 8.3.2.5-.9 0-2.5-1.1-7.7-5.4-21.4-6.2-22.9-1.3-1.5 4.7 6.1 10 15.3 10.8 5.4.4 6.8.2 9.2-1.6 1.6-1.2 3.2-1.8 3.5-1.3 2.3 3.9 6.5 12.5 6.1 12.8-.2.3-1.5-.2-2.8-1-3.4-2.3-9.2-2.9-11.3-1.3-1.8 1.3-1.8 1.5-.1 4.1 1 1.4 3.3 3.3 5.1 4.1 4 1.6 10.1 1.8 11 .3 1-1.6 2-.8 6.9 5.5 2.5 3.3 6.3 7.8 8.4 10 2.1 2.3 4.1 4.6 4.5 5.2.9 1.5-4.9 15.7-13.9 33.8-8.3 16.6-9.4 18.2-9.5 14.5-.9-30.9-7.7-48.6-25.1-65.6-9.1-8.9-9.9-9.6-28.3-22.8-8.2-5.9-17.8-13-21.2-15.8l-6.2-5 2.4-1.9c3.5-2.7 5.1-12.2 2.4-13.9-2.8-1.7-6.3 2.7-7.1 9.1-.3 2.1-.8 1.6-3.6-3.8-2.9-5.6-3-6.2-1.3-6.2 2.7 0 6.7-3.5 9.6-8.4 4.4-7.6 3.8-13.4-1.3-12.1-4.9 1.2-9.8 7.3-11.2 14l-.6 2.9-2.1-4.4c-2.9-6.4-3.8-9.4-2.4-8.6 4 2.5 18.2-9.8 21.6-18.8 1-2.5 2-4.6 2.4-4.6.3 0 2.4.5 4.6 1 2.2.5 8.1 1.3 13.2 1.6 7.7.6 9.7.4 11.8-1 3.2-2.1 3.2-2.7-.6-6.4-6.6-6.4-20.5-7.3-28.9-1.9-1.9 1.3-5.5 2.9-7.9 3.6-6 1.7-14.2 10.2-16.9 17.3l-2 5.3-2.1-6.9c-1.1-3.7-2.1-7-2.1-7.2 0-.2 1.3-.4 2.8-.4 3.6 0 10.3-4.4 17.2-11.2 9.9-9.8 13.4-16.7 9.5-18.2-2.1-.8-11.9 3-15.8 6.2-7.2 5.9-13.7 14.3-13.7 17.7 0 3.1-1.8.5-2.5-3.7-.4-2.4-.9-5.6-1.2-7.1-.4-2.5-.2-2.7 1.9-2.2 3.3.8 11.5-4.3 20.3-12.6 4-3.9 7.8-8.3 8.4-10 .9-2.7.8-3.1-1.2-3.8-2.7-1-9.1.8-15 4.2-5.4 3.2-11.3 9.6-13.7 15l-1.8 4-.4-6.7c-.4-8.1-.2-8.6 2.7-8.6 4.2 0 16.7-10.7 20-17 1.3-2.4 1.3-3 0-4-3.8-3.1-15.3 2.5-20.3 10-4.3 6.5-5.2 4.3-1.4-3.5 2.2-4.5 3.4-10.3 3.4-17.1 0-7.7-3.2-8.3-7.1-1.3-3 5.4-3.9 14.4-1.8 19 1 2.2 1.8 7.7 2.2 15.3.3 6.6.9 12.4 1.3 13 .3.6-2.8-2.3-6.9-6.5-18-18.1-34.7-22.8-27.5-7.7 5.4 11.3 26.1 23.6 32.4 19.2 1.9-1.3 1.9-1.1 2.1 5.2l.1 6.6-3.7-2.9c-5.1-3.8-10.8-6.8-18.7-9.8-7.6-2.8-11.8-3.2-13.6-1-5.5 6.6 16.8 22.5 31.6 22.5 4.5 0 5.2.3 5.8 2.2 1.2 4.6.8 4.9-4.6 2.7-6.8-2.7-14.6-4.1-18.1-3.3-6.4 1.4-4.7 8.3 3.3 13.3 5.7 3.6 10.1 5 17 5.3 5 .2 6.9 1.1 7 3 0 .5-2.6.8-5.8.8-3.2 0-6.3.5-7 1.2-4.5 4.5 5.2 11.8 15.6 11.8 4.2 0 5.1.4 7.1 3.1l2.3 3.1-2.9-.2c-5.2-.4-6.3 0-6.3 1.8 0 4.1 9.3 8.8 13.8 7.1 1.3-.5 2.5-.9 2.7-.9.2 0 2.5 2.8 5.1 6.2 7.7 10.2 12.4 14.8 12.4 12 0-.5-1.7-2.8-3.7-5.2-4.8-5.6-4.2-5.2 15.7 9.9 39.4 30 47 43.5 47.1 83.3v16.9l-10 18.2c-13.4 24.4-11.9 22.7-16.4 18.1-2-2.2-5.4-6.4-7.7-9.4-3.9-5.2-4-5.5-2-6.2 4.2-1.6 6.8-14.1 3.5-16.8-2.8-2.3-6.2 2.2-7.4 9.6l-.6 4.4-4.2-7.8-4.2-7.8 2.8.4c7.3 1 18-18.3 12.6-22.8-3.9-3.2-13.9 6.2-15.1 14.2-.4 2.1-1 3.8-1.4 3.8-.4 0-2-2.8-3.5-6.3-1.4-3.4-3.3-7.6-4.1-9.4-.8-1.7-1.4-3.4-1.4-3.7 0-.3-3.7-9.2-8.2-19.8-8-18.8-11.1-25.1-18.8-37.3-2.1-3.3-4.1-7.8-4.5-9.9-1.3-7.9-17.8-20.7-21.7-16.8-2.9 2.9 8.2 16.1 17.3 20.5 3.1 1.5 5.6 3.6 7.4 6.5 4.4 6.9 11.5 20.5 11 21-.3.3-.5.1-.5-.4 0-1.5-7.5-5.4-13-6.9-2.7-.7-8.4-1.1-12.8-.9-7.5.3-8 .2-8.5-1.8-.8-2.9 0-3.9 2.6-3.3 4.6 1.1 17.1 1.2 19.9.3 5.2-1.8 2.8-7-4.9-10.4-2.6-1.1-6.4-1.7-11.9-1.6l-8.1.1-2.7-9.5c-2.5-8.7-2.6-9.7-1.2-11.8 2.3-3.5 2.7-9.9.9-12.5-1.4-2.1-1.6-2.1-3.4-.5-1 .9-2.1 2.5-2.4 3.5-.9 2.6-1.7 2.4-3.6-1-1.6-2.7-1.6-3 .6-5.2 5.1-5.4 7-15.8 3.6-20-1.8-2.3-1.9-2.3-4.6-.5-2.4 1.5-4.6 5.5-6.9 12.1-.6 1.8-.9 1.7-3.1-1l-2.4-3 2.5-1.9c6-4.5 10.1-18.4 7.9-27.1-1.3-4.8-2.7-6.5-5.7-6.5-3.9 0-9.4 11.6-10 21.3-.2 3.1-.6 5.8-.9 6.1-.3.3-2.2-1.2-4.3-3.3-3.6-3.7-3.7-4-1.8-5 3-1.6 6.2-7.8 7.8-15.1 1.8-8.4 1.8-14.4-.1-20.6-3-10.2-9-8.6-11.9 3.3-2 8.2-2.9 24.4-1.6 27.8.5 1.4.7 2.5.3 2.5-.3 0-4.5-3.5-9.2-7.8C62.2 138 53 131 51.5 131c-.3 0 2.1 2.3 5.4 5 3.4 2.8 6.1 5.2 6.1 5.4 0 .1-3.3.3-7.3.3-6.2 0-8.5.5-14.2 3.2C34.8 148 29 153 29 155.7c0 2.5 4.4 3.2 11.8 1.8 12.8-2.5 24.1-7.2 24.9-10.6.3-1 .8-1.9 1.2-1.9.4 0 2.8 2.1 5.4 4.7l4.6 4.8-8.7.1c-6.9 0-10 .6-14.9 2.6-9.8 4-15.2 9.3-12.4 12.1 2.7 2.7 23.6-.4 32.4-4.9 4.2-2.2 6.8-4.5 6.1-5.5-.3-.5-.1-.9.4-.9.9 0 9.3 10.2 8.8 10.7-.1.2-1.6-.1-3.2-.6-10.1-2.9-27.4 3.2-27.4 9.7 0 2.6 7 4.4 14.5 3.9 11.5-.9 19.5-4.4 19.5-8.5 0-1.6 1.3 0 6.5 8.1l1.8 2.8-2.9-1.2c-4.3-1.6-12.9-1.3-15.9.7-3.3 2.2-3.3 5.7.2 7.5 4.2 2.2 14.7 1.7 18.3-.9l2.9-2.2 3.1 5.2c3.6 6.4 3.7 7.3.6 5.3-3.1-2.1-8.3-2.2-10.2-.3-1.3 1.2-1.2 1.7.8 3.5 2.8 2.7 9.9 4.4 12.2 3.1 2.2-1.2 1.9-1.5 5 5.9s4.3 13.8 2.7 14.7c-1.5 1-1.4 2.2.3 3.9 1.8 1.7 3.1 11.7 1.7 11.7-.6 0-1.5.9-2.2 2.1-.9 1.7-.7 2.5 1.1 4.4 2.6 2.7 2.5 3.8-1.1 35.5-2.8 24.7-2.5 24-6.4 14-3.3-8.6-3.4-10-1.1-10 2.8 0 5.5-10.5 3.6-14.1-2.3-4.2-5.3-1.5-7.4 6.7l-1.1 4.2-3.7-6.4c-3.5-6.2-3.6-6.4-1.4-6.4 6.5 0 12.4-15.6 8.1-21.7-4.1-5.8-11.7 4.3-11.7 15.5 0 1.8-.2 3.2-.4 3-.2-.2-3.7-4.9-7.9-10.4-4.2-5.4-11.9-14.3-17.3-19.8-9.5-9.7-25.8-23.3-26.8-22.4-.2.3 2.1 2.5 5.2 4.9 8.4 6.5 10.1 8 8.4 7.4-.8-.2-3.2-.6-5.3-.8C40 225.5 22 234.2 22 241.1c0 6.4 35.3-2.9 37-9.8.5-2.1.6-2.1 4 1.1 1.9 1.8 4.6 4.5 6 6l2.5 2.7-2.6-1c-11.7-4.4-40.7 7.4-35 14.3.8.9 3 1.2 7.3 1 13.3-.7 26.3-4.8 30.1-9.4l2.4-2.8 3.4 4.1c6.4 7.7 6.4 7.5 1.1 6.2-2.6-.7-5.6-1.1-6.7-1-1.1.2-4 .6-6.5 1-5.5.8-12.6 4.8-13.5 7.6-1.2 3.6 1.7 5.3 9.5 5.7 10.5.6 22.4-2.9 23.9-7.1.6-1.7 1.2-1.2 4.3 3.4 2 3 3.5 5.5 3.3 5.7-.1.1-1.4-.2-2.9-.8-8-3-20.2 1.1-17.6 6 2.7 5.1 18.8 5.4 22.5.3 1-1.4 1.6-.8 4.3 3.9 1.8 3.1 3.2 5.8 3.2 6.1 0 .3-1.3-.1-3-.9-1.6-.9-4.4-1.4-6.2-1.2-2.7.2-3.3.7-3.3 2.7 0 4.2 8.9 7.6 13.5 5.1 1.6-.8 2.1-.2 4.3 5.3 5.1 12.8 5.9 17.4 5.3 28.2-.4 5.5-.7 14.2-.8 19.3l-.1 9.3-3-5.8c-1.6-3.2-3.4-6.4-3.9-7.1-.8-.9-.6-1.8.5-3 3-3.3 2.2-12.6-1.1-12-1 .2-2 2-2.7 4.6l-1 4.3-3-3.1c-2.7-2.8-2.8-3.3-1.4-4.3 4.1-3.1 5.4-12.7 2.1-16.7-3.5-4.4-7.1.4-6.8 9.3.1 2.6-.1 4.7-.4 4.7-.8-.1-6-4.8-6-5.5 0-.4.9-1.4 2.1-2.3 5.5-4.5 4.2-21.8-1.9-25.1-3.8-2-6.2 2.4-6.2 11.3 0 3.5.5 7.7 1 9.2 1.7 4.3.6 4.2-6.8-1.2-.2-.1.5-1.5 1.5-3 2.9-4.5 2.3-16.8-1.1-23.7-2.8-5.9-6.6-8.6-8.6-6.2-2.3 2.8-1.1 15.2 2.5 25.4 2 5.7 2 5.6-2 3.1-1.9-1.2-4-2-4.6-1.8-.6.2.5 1.2 2.5 2.3 2 1.1 3.6 2.2 3.6 2.5 0 .4-2.2 1.2-5 1.9-2.7.7-6.9 2.8-9.4 4.7-2.5 1.9-5.1 3.4-5.9 3.4-3.5 0-4.9 8-3.3 19.7l.7 5.2-3.1-1c-3.4-1.2-3.5-1.6-1.5-4.3 1-1.3 1.2-3.7.9-8.3-.2-3.6-.7-6.9-1-7.4-.3-.5 1.7-2.2 4.3-3.8 10-6.2 12.8-8.8 15.8-14.6 4.7-9.4 3.2-18.8-4.6-28.6-3.3-4.2-7.4-5.3-8.6-2.3-1.3 3.4 2.7 15.3 8.1 24.1l2.6 4.1-5.5-2.1c-3.4-1.4-5.1-2.5-4.5-3.1 4-4-6.1-19.4-13.6-20.9-6.5-1.2-4.7 5.4 4.1 15 2.9 3.2 5.1 6.1 4.9 6.5-.3.4-2.3 1.2-4.4 1.8-5.3 1.4-12 7.8-12 11.3 0 3.3 1.5 3.4 7.6.7 5.2-2.4 12.4-8.6 12.4-10.7 0-1.6 2.4-1.1 7 1.2l2.5 1.3-4 1.1c-5.2 1.5-7.5 2.8-12.4 7.3-3.4 3.2-4.4 3.7-6.4 2.9-1.4-.6-2.8-.7-3.1-.4-1.9 1.9.4 15.6 3.7 22.2 1.8 3.6 1.3 3.8-3.1 1.1-2.5-1.5-3.1-2.4-2.4-3.3 2.3-2.8-.8-11-5.9-16-3.1-2.9-6.6-3.6-7.5-1.3-.6 1.6 2.7 8.5 6.3 13.3 2.9 3.8 2.5 4.8-2.2 5.7-4.2.8-10.5 6-10.5 8.7 0 2.3 2.2 2.4 8 .4 6.3-2.2 6.5-1.9 1.5 2.8-2.5 2.4-4.5 4.9-4.5 5.6 0 3.5 8.6 1.5 18.1-4.4 3.7-2.3 6.3-3.2 7.7-2.8 3.3.8 2.7 2-1.5 2.8-7 1.3-15.3 7.1-15.3 10.7 0 1.9.4 2 4.4 1.5 5.8-.8 14.9-4.9 18.2-8.2l2.7-2.7 2.6 2.6 2.6 2.6-2.5.1c-1.4.1-2.8.1-3.2 0-2.1-.3-9.9 4.1-11.4 6.4-1.5 2.3-1.5 2.8-.3 3.6 3.6 2.2 14.3-.2 18.7-4.4 2.3-2.2 2.4-2.2 3.8-.2 1.3 1.8 1.2 2-3.1 3.2-2.4.8-4.9 2.2-5.5 3.3-.9 1.7-.7 2.2 1.5 3 2.7 1 7.5.6 10.5-1 1.1-.6 2.1-.5 2.8.2 1.8 1.8 1.4 2.8-.8 2.8-1.3 0-2 .7-2 2 0 1.5.9 2.1 4 2.6 3.6.6 4.8 1.6 10 8.4 12.2 15.7 23.3 21.1 45.8 22.3 4.5.2 8.4.6 8.5.8.2.2 2.6 3.3 5.3 6.9 2.6 3.6 6.2 8 7.9 9.9 4.7 5.2 22.4 22.3 28.8 27.7l5.7 4.9-.6 36.5c-1.5 80.6-1 153 1.2 172 .8 7.7 2.7 16.1 3.7 16.7.8.5 43.9.7 80.6.4l8.4-.1-8.9-8.8c-16.5-16.1-27.6-36.4-39.9-72.7-12.4-36.9-21-98.3-21-150v-15l8.5-5.7c19.1-12.7 31.6-17.2 47.5-17 12.5.1 22.1 2.5 49.2 12.1 10.9 3.9 20.5 7.1 21.1 7.1.7 0 1.5 1.3 1.8 3 1.1 5 7.3 9.8 9.7 7.4.3-.4 0-2.2-.8-4-1.5-3.6-1.1-3.9 3.3-2.8 1.7.5 2.2 1.4 2.2 4 0 6.6 7.3 14.5 11.3 12.2 2.4-1.3 2.1-4.6-.8-9.7-1.4-2.3-2.5-4.5-2.5-4.7 0-.2 1.5-.4 3.3-.4 3.1 0 3.3.2 2.9 3.3-1 9 11.9 23.7 17.7 20 3.8-2.4-.9-13.6-8.5-20.3l-3.5-3h10.7l.1 3.8c.1 6.7 7.6 16.9 16 21.9 4.7 2.7 8.3 2.4 8.3-.8 0-5-8.2-16.1-16.4-22.1-2.1-1.5-3.3-2.8-2.5-2.9.8 0 3.5-.3 6-.5 4.5-.4 4.6-.4 4.1 2.1-.8 4.6 7.4 14.6 15.3 18.5 4.5 2.2 11.3 3.2 12.1 1.8 2.2-3.4-6.2-12.9-17-19.2-3.6-2.1-6.6-4-6.6-4.1 0-.1.6-.2 1.3-.2.6 0 3.4-.3 6-.7 3.6-.4 4.7-.3 4.4.7-2.3 6.3 18.5 15.9 24.7 11.4 1.6-1.2 1.7-1.6.5-3.5-1.4-2.2-12.2-7.6-17.6-8.7-2.2-.4-3-1.1-2.6-2.1.4-1 0-1.3-1.3-.9-1.6.5-1.6.4.1-.5 5.2-2.9 10.3-13.5 9.1-18.6-.9-3.3-2.7-3-7.6 1.1-2.3 1.9-4.4 3.5-4.6 3.5-.2 0-.4-2.3-.3-5 .4-8.8-2.9-9-8.4-.7-1.8 2.9-4.4 7.3-5.8 9.9-1.3 2.7-2.7 4.8-3.1 4.8-1.1 0-1-.2 1.1-5.1 2.8-6.6 3.5-13.3 1.6-14.9-1.3-1.1-2.2-.7-5.8 3.2-3.7 3.9-10.6 15.7-11.1 19.1-.3 2.4-1.8 3.7-4.2 3.7h-2.5l2.2-2.3c2.5-2.5 6.9-11.4 6.9-13.9 0-2.9-1.2-4.8-3.1-4.8-4.6 0-14.9 13.3-14.9 19.2 0 2.6-.3 2.8-3.7 2.8h-3.7l2.7-2.8c2.9-3 5.7-9.1 5-11-1.5-4-11.2 2-13.3 8.3-1.2 3.5-2.6 4.1-6.3 2.7-1.6-.7-1.6-1 .8-3 1.4-1.2 2.5-2.9 2.5-3.7 0-2.4-5.5-1.8-8.8 1-1.7 1.4-3.4 2.5-3.9 2.5s-10.3-3.8-21.8-8.4c-30.7-12.3-39.9-14.8-55-15-4.6-.1-7.9-.6-7.8-1.1.2-.6 1.9-2.9 3.9-5.3 2.6-3.1 3.9-4 4.8-3.3 2.8 2.4 11.6 1.2 11.6-1.5 0-1.9-4.1-3.4-7.1-2.7-2.2.5-2.1.3 1-3 3.3-3.5 3.5-3.6 4.8-1.7 4.1 5.9 18.1 7.3 16 1.6-.9-2.3-6.8-5.6-9.9-5.6-3.6 0-3.5-1.1.2-3.8 3.2-2.4 4.5-2.8 3.5-1.2-1.6 2.6 13.9 13 19.2 13 3.3 0 4.4-2 2.8-5-2.8-5.5-9.4-9.8-17-11.2-1.6-.3-1.1-.9 2.4-2.7 3.5-1.8 4.5-2 5.2-.9.5.7.9 1.7.9 2.1 0 3.1 18 15.7 22.4 15.7 4.4 0 2.2-6.4-4.3-12.3-4.3-3.9-11-7.7-13.6-7.7-2.9 0-1.5-1.6 3-3.2 4.3-1.6 4.5-1.6 4.5.2 0 4.6 18.6 17.8 23.6 16.8 5.3-1 .6-8.8-8.9-14.9-3.3-2.1-7.1-3.9-8.4-3.9-3.8 0-2.6-1.6 2.5-3.4 4.4-1.6 1.9-1.5-3.7 0l-2.4.7 2.5-3.4c4.7-6.3 8.8-17.8 8-22.6-.9-6-7.6-1.5-12.3 8.4-3.5 7.4-4.4 13.8-2.3 17 .9 1.5 1.1 2.3.3 2.3-.6 0-2.6.7-4.5 1.6-4.1 2-5.1 1.4-3.1-1.8 5-7.8 7.3-25.9 3.4-26.6-6.9-1.3-15 22.1-10.3 29.4 1 1.4 1.6 2.6 1.4 2.7-.2.1-2.2 1.2-4.5 2.5-2.4 1.2-4.3 2.1-4.3 1.9 0-.2.9-2.9 1.9-6 2.2-6.4 2.2-16 0-18.2-1.1-1.2-1.9-1.2-3.8-.2-6.3 3.1-9 18.3-4.4 24.5l2.2 3-3.8 2.5-3.9 2.6.9-3.7c1-4.4.2-10.2-1.6-12-2-2.1-5.2.2-6.4 4.4-1.2 4.5-.4 9.2 2 12 1.9 2 1.9 2.1-1.5 5.2l-3.5 3.1.1-4c.1-5-1.5-7-3.8-4.7-2.2 2.2-2.8 7.9-1 10.3 1.3 1.8.9 2.5-4.6 8.7-3.3 3.8-6.6 6.8-7.2 6.8-3 0-14.9 4.6-24.9 9.6-9.9 5-10.7 5.2-10.2 3.2.2-1.3 1.1-5.4 2-9.1 1.9-8.6 1.7-8.3 13.3-23.4 21.6-28.2 44.4-47.8 58.2-49.9 2.5-.4 5.2-1.3 6-2 4.4-3.8 28.5-5.1 37.8-2l5.4 1.8-3.3 2c-7.7 4.7-12.9 14.8-10.2 20.1.8 1.5 1.1 3.1.9 3.6-1.7 2.7 9.2 10.3 16.3 11.4 11.5 1.8 5.4-8.2-7.4-12.3-3.3-1-5.5-1.9-5-2 .6-.1 4.4-.2 8.5-.3 5.5-.2 8.3-.8 10.5-2.2 4.1-2.7 4.7-3.8 2.8-5.2-2.9-2.2-12.5.1-17.6 4.4-4.3 3.5-5.5 2.8-1.8-1.1 4.2-4.3 8-12.3 7.5-15.4l-.5-2.4 3.2 2c4.2 2.6 14 12.3 24.1 23.8 5.9 6.8 10 10.3 15.9 13.9 4.3 2.6 7.9 5.4 7.9 6.1 0 2.5 5.2 7.5 7.4 7.2 2.2-.4 2.3-.8 1.1-4.6-.6-1.9-.3-2.2 2.3-2.2 2.6 0 2.9.4 3 3.1.1 5.3 5.6 11.8 10 11.9 1.2 0 2.5-.7 2.8-1.5.8-1.9-1.3-7-4.3-10.5l-2.3-2.8 3.9-.4 3.8-.3-.1 4.1c0 5.4 3.9 11.5 10.1 15.5 5.5 3.4 7.8 3.6 9.3.8 2.1-3.9-5.5-14.9-13.5-19.5-1.5-.8-.8-1.1 3.8-1.3 5.6-.2 5.7-.2 5.7 2.6 0 7.3 14.1 20.2 22.2 20.3 5.9 0 4.8-4.8-2.6-12.1-3-3-8-6.8-11.2-8.5l-5.6-3.2 4.3-.7c2.4-.3 5.2-.9 6.1-1.1 1.2-.4 1.5 0 1.2 1.3-.5 2 2.9 7.2 6.9 10.3 7.1 5.6 20.6 8.4 22 4.6 1.4-3.5-9.7-11.7-20.8-15.4l-5.4-1.9 5.3-1.6c6.2-2 6.9-2.1 6.1-.6-1.2 1.8 3.7 5.9 8.9 7.4 5.9 1.8 9.2 1.9 13.5.4 7.7-2.7-.2-8.4-13.4-9.6-7.3-.6-7.9-1-2.9-1.8 9.5-1.5 14.6-4.2 17.3-9.2 3.6-6.8-9.2-2.4-16.2 5.6-1.6 1.8-3 3.1-3.2 2.9-.3-.2.7-2.6 2-5.3 2.6-5 3.3-11.8 1.5-14.5-1.4-2.3-4.1-.2-7 5.6-2.2 4.5-2.5 6.2-2.5 16.4 0 0-2.1.7-4.8 1.5l-4.7 1.4 2.5-3.2c3.8-5 5.5-10.1 5.5-16.1 0-6.6-.7-8.6-2.9-8.6-2.1 0-4.2 3.6-7 11.8-2.5 7.4-3.1 11.9-2.1 14.8.7 1.8.3 2.1-4.1 3-5.3 1.1-6 .7-3-2 3.5-3.2 6.5-11.6 6.5-18.6.1-5.9-.1-6.5-2.1-6.8-1.8-.3-2.8 1-6.4 8.3-3.5 7.1-4.3 9.6-4.3 14.5-.1 3.3-.5 6-1.1 6.1-.5.1-2.7.3-4.8.4l-3.8.4 3.2-3.6c4.7-5.4 6.4-10.1 6-17.1-.2-3.7-4.4-2.9-8 1.5-4 4.8-7.3 13.6-6.5 16.9.6 2.4.5 2.5-4 2.2l-4.7-.3 2.3-1.9c4.9-3.9 7.6-11.4 4.8-13.1-3.1-1.9-11 6.5-11 11.8 0 2.8-.1 2.9-3.7 2.2-2.1-.4-3.9-.8-4.1-1-.2-.1 1.1-1.7 2.8-3.4 3.2-3.1 3.2-5.1.2-5.1-2.6 0-8.2 3.8-8.2 5.5 0 2-1.3 1.9-5.8-.4-4.7-2.4-11.6-9.5-23.9-24.6-5.4-6.5-12.2-13.8-15.1-16.2-2.9-2.4-4.9-4.4-4.5-4.4.4-.1 9.1 0 19.3.2 58.9 1 70.4.2 90.5-6.5 9.9-3.4 10-3.4 12.1-1.5 1.2 1.1 4.2 2.2 7 2.5 9.6 1.1 11.5-4.9 2.4-7.2l-4.4-1 4.5-3.1 4.5-3.1 3.2 3.4c3.6 3.8 7.7 5.2 14.1 4.8 5.3-.3 9.2-3.4 7.5-6.2-1.5-2.6-9.3-6.1-14.2-6.4l-4.2-.2 3.2-3.3c1.8-1.8 3.6-3.3 4.1-3.3.4 0 1.9 1.3 3.3 2.9 6.5 7.7 29.4 8.5 33.3 1.3 1.6-2.9.4-5-3.9-7.2-4.8-2.5-12.7-3.7-20.9-3.3l-6.4.3 4.4-4.8 4.4-4.7 2.7 2.6c7.6 7.4 32.5 6.9 40.2-.8 2.4-2.3 2.5-2.8 1.3-4.7-.8-1.1-3.4-2.6-5.8-3.3-5.5-1.6-23.6-1-30.2 1.1l-4.8 1.4 2.7-3.6c1.5-2 3.5-4.7 4.4-5.9l1.7-2.2 2 2.1c4.7 4.6 22.8 3.1 32.9-2.8 7.5-4.4 10.1-10.7 4.8-12-5.6-1.4-21.1 1.5-31.6 5.9-2.1.9-4 1.2-4.3.7-.3-.5.9-3.8 2.7-7.2 2.4-4.7 3.4-5.8 3.6-4.3.3 1.1.9 2.3 1.6 2.7 2.4 1.6 8.3.7 14.1-2.1 6.9-3.3 12.2-8.1 14.2-13 1.3-3.1 1.3-3.6-.1-4.7-1.9-1.4-6.4-.6-11.6 2.1-5.1 2.6-15.8 10.3-16.3 11.7-.2.7-.7 1-1.1.6-.9-.7 1.8-5.2 5.2-8.5 1.3-1.3 3.2-4.2 4.2-6.6 3.1-6.8 2.3-17.7-1.3-17.7-3.2 0-7.9 13.8-7.6 22.2.2 4.6-.4 6.4-4.2 13.4-2.4 4.5-5.2 9.2-6.1 10.5l-1.7 2.4.3-2.4c1.4-11.6-12-33-19.2-30.7-2.5.8-2 5.3 1.4 14.5 4.7 12.6 11.6 22 15.1 20.6 1.8-.6-.7 3.7-5.1 8.9l-3.1 3.7-.2-5.1c-.4-10.8-6.8-23.7-14.3-28.8-3.1-2.1-3.6-2.1-4.6-.7-3.4 4.7 6.5 31.4 13.4 36.1l3.1 2.1-4.5 4.7c-2.5 2.5-4.7 4.6-4.8 4.6-.2 0-.3-3.1-.3-7 0-5.5-.6-8.1-2.7-12.4-3.3-6.8-7.9-11-10.6-9.6-5.4 2.9-.9 25.8 6.2 31.4l3 2.3-4.5 3.7c-2.4 2-4.7 3.6-5 3.6-.3 0-.2-1.2.2-2.8 2.4-8.8-3.8-21.2-8.3-16.6-.9.8-1.7 2.3-1.7 3.2-.8 9.3.2 14.5 3.3 17.9l2 2.1-5.4 3.5c-2.9 1.9-5.4 3.3-5.6 3.2-.1-.1.3-1.6.9-3.3 1.6-4.7.8-9.7-1.6-9.7-3 0-5.7 6-5.2 11.7l.4 4.6-6.3 2.1c-12.9 4.2-25.4 6-42.9 6.2-21.1.1-22.8 0-22.2-1.5.8-2-1-3.3-5.6-4.1l-3.7-.7 3.6-2.8 3.7-2.7 2.7 3c3.4 3.9 11.2 5 14.8 2 1.5-1.1 2.1-2.4 1.7-3.5-.8-2.1-5.9-4.2-10.7-4.2-2.1-.1-3.8-.4-3.8-.7 0-.3 1.3-1.8 2.9-3.3l2.9-2.8 1.2 2.2c3.2 6.1 19.9 7.5 25.2 2.2 1.6-1.6 1.8-2.4.9-4-1.7-3.1-7.3-4.5-16.2-4l-7.8.5 3.1-3.9c2.7-3.5 3.2-3.7 4.7-2.4 4.8 4.4 19.1 5.2 26.7 1.6 7.3-3.6 7.9-7 1.4-8.7-4.9-1.4-18-.4-23.6 1.7-1.5.6-2.8.9-3 .7-.3-.2 3.7-6.8 5.3-8.7.2-.2.8.1 1.2.9 2.1 3.4 15.6 2.9 22.9-.8 4.8-2.5 8.5-6.5 8-8.8-.7-3.8-14.5-2-25 3.2-2.7 1.3-4.8 2.2-4.8 1.9 0-.5 4-8.6 4.6-9.3.2-.2 1 .3 1.8 1.2 2.8 2.7 11.3-.4 17.4-6.3 3.6-3.6 5-7.6 3.4-9.2-1.7-1.7-9.5 1.7-15.8 6.8-6 4.9-6.9 4.5-2.4-1.1 1.6-2.1 3.5-5.6 4.1-7.8 1.9-7.1-.7-13.4-3.8-9.5-2 2.5-3.5 8.9-3.4 14.8 0 5.9-1.5 9.6-1.7 4.1-.1-5.8-6.8-15.1-10.8-15.1-2.3 0-2.5 3.7-.4 9.1 2.6 6.4 6.5 11.9 8.6 11.9 1.8 0 1.1 2.9-1.5 6.9l-1.6 2.5-.6-3.5c-.9-5.7-4.8-12.7-9.2-16.4-5.1-4.4-7.3-4.2-6.9.5.7 8.1 11.3 24.3 14.5 22.3.7-.4.5.4-.4 1.7-.9 1.4-2.2 3.5-3 4.7-1.9 3.2-2.5 2.9-2.7-1.3-.4-5-4.5-13.3-8.7-17.7-8.5-8.7-9.6-1.2-2.3 14 3.1 6.4 5.7 9.8 7.9 10.5.9.3.3 1.6-1.7 4.1-1.6 2-3.1 3.7-3.4 3.7-.3 0-.5-2.2-.6-4.9-.1-6.1-3.4-13.1-7.3-15.4-2.5-1.5-3-1.5-4.1-.2-2.7 3.2 1.8 19.9 6.2 22.9 1.9 1.3 1.9 1.5-.9 4l-2.8 2.6-.3-4.8c-.2-3.2-1.1-5.7-2.7-7.7-2.2-2.8-2.5-2.9-4.1-1.3-2.3 2.3-2 10 .5 14.4l2 3.3-2.6 2.1c-3.6 2.8-4.2 2.5-3.6-2 .5-3.2.2-4.1-1.2-4.6-2.8-1.1-6.1 6.2-4.3 9.8.7 1.4 0 2.2-3.3 3.8-3.6 1.9-5.3 2.1-14.3 1.6-5.5-.3-13.6-.6-17.8-.7-7.4-.2-7.7-.3-7.2-2.3.3-1.4-.2-2.8-1.4-3.9-3.3-3-15-4.2-21.4-2.1-1.9.6-1.7.1 1.1-3.5 3.2-4 5.1-5.2 5.1-3 0 2.4 7.4 4.1 15.5 3.7 11.8-.6 19.3-5 16.1-9.3-1.1-1.5-2.8-1.8-11.2-1.7-5.9 0-11.7.7-14.2 1.5-4.7 1.6-4.8 1.6-2.7-2.1 3.1-5.7 3.2-5.8 5.4-3.8 4.3 3.9 19.3 1.4 26.4-4.5 7.8-6.5 1.9-9.9-10.8-6.4-3.3 1-8.1 2.8-10.7 4-2.7 1.3-4.8 2.1-4.8 1.9 0-.3.9-2.3 2.1-4.5 1.1-2.3 1.8-4.3 1.5-4.6-.3-.3-1.1 1.1-1.9 3-2 4.6-3.7 5.6-3.7 2-.1-4.3-3.7-11.3-8.3-16.1-4.2-4.3-7.1-5.3-8-2.8-1.6 4.2 9.1 24.6 12.9 24.6 2.2 0 1.6 2.2-1.5 5.9l-2.8 3.4-.1-3.9c-.4-9.6-12.5-25.5-15.7-20.5-1.8 3 6.4 22.3 11.1 26l2.6 2.1-3 3.4-2.9 3.4-.6-5.3c-1-9.6-7.5-18.6-11.3-15.4-3.5 2.8 1.9 21.9 6.6 23.4 1.8.6 1.8.7.2 2.3-1 .9-2.6 2.4-3.6 3.2-1.7 1.3-1.8 1.2-1.5-1.5.6-7.2-3.4-14.2-6.6-11.5-2.8 2.4-1.6 13.9 1.8 16.1 1.4.9.1 2.7-3.3 4.4l-2.8 1.4.5-3.9c.5-3.2.2-4.1-1.2-4.6-2.5-1-4.5 2.1-4.5 6.8 0 3.9 0 3.9-8.2 7.8-4.5 2.2-8.4 4.4-8.7 4.8-.3.4-3.3 2.9-6.6 5.6-3.3 2.6-9.1 7.8-13 11.5-3.8 3.6-7.8 7.2-8.8 8-2 1.6 1.9-7 22.3-48.4 7.8-16 16.2-33.1 18.5-38 2.6-5.4 6.5-11.4 9.7-15.1 5.1-5.7 5.5-5.9 6.8-4.2 1.8 2.3 6.7 3 11.4 1.7 7.6-2.1 3.4-7.6-5-6.6l-4.6.5 4.8-4.9c5-5.1 6.4-5.9 6.4-3.6 0 5.6 19.4 11.6 21.9 6.8 2.2-4.1-5.4-9.9-14.3-11l-5.1-.6 5.2-3.8c5.9-4.3 6.3-4.4 6.3-1.7 0 4.9 15.1 15 24.7 16.6 3.5.5 4.3.3 5.2-1.5 3.3-6-12-18.9-22.9-19.4-4.7-.2-4.5-.4 4.1-4.9 5.7-3.1 6.6-3.3 6.2-1.7-1.6 6.2 21.7 24.9 30.9 24.9 3.4 0 4.3-1.7 2.8-5.5-3.4-9-19.8-20.9-29.5-21.5-1.7-.1-1.5-.3.9-1.6 1.6-.9 5.2-2.4 8-3.4l5.2-1.8-.4 3c-.4 2.6.4 3.8 6.1 9.3 7.1 6.8 19 13.5 23.8 13.5 7.5 0 3.9-9.1-6.7-17.2-6.9-5.2-11.8-7.6-17.7-8.7l-4.2-.8 8.3-2.6c9.9-3.2 9.5-3.2 8.2-.7-.9 1.6-.4 2.6 2.8 5.8 5.7 5.7 14.4 9.7 21.2 9.7 4.9 0 5.5-.2 5.8-2.2.7-5.1-13-14.1-23.1-15.1l-5.2-.6 3.9-1.1c2.2-.6 5.5-.9 7.5-.5 8.3 1.4 22.3-3.4 22.9-7.8.8-5.6-16.7-3.5-23.8 2.8-2.4 2.2-7.1 4.2-15.5 6.9-6.6 2.1-16.5 5.5-22 7.5-9.2 3.4-9.7 3.5-7.8 1.4 4.6-4.8 10-20.5 10.4-29.8.4-8.9-1.8-12.3-6.2-9.9-2.2 1.1-7.9 9.7-9.7 14.4-3.9 10.5-3.6 25 .5 27.3.8.5 1.2 1.2.7 1.4-5.1 2.9-12.4 6.8-12.9 6.8-.3 0 .3-1.7 1.3-3.7 5.5-10.9 5.8-28.7.5-30.7-2.4-1-6.7 2-9 6.1-5.8 10.4-5.1 26.9 1.3 29.7 2 .9 1.7 1.3-3.5 5.2-3.1 2.3-5.7 4.1-5.8 4-.2-.1.2-1.8.7-3.7 2.4-8.1.1-18.9-3.9-18.9-1.2 0-2.1-.2-2.1-.4 0-.7 7.7-14.1 10.2-17.7 5.4-7.9 8-10.7 11.8-12.4 2.5-1.1 4.2-2.7 4.8-4.5 1.3-3.7 6.6-6.7 13.2-7.4 4.4-.5 6-1.2 8.3-3.7 2.4-2.6 4.3-3.4 14-5.4 6.2-1.3 13.9-2.6 17.2-3l6-.6 6.8 6.9c6.2 6.3 6.7 7.2 5.6 9-1.8 2.9.8 9.6 3.9 10 1.9.3 2.4-.2 2.4-2.8.1-.3-.2-1.7-.6-3.3-.8-3.2-.1-3.3 4.1-.7 3.1 1.9 3.2 2 1.8 4.7-1.9 3.6-1.9 6.7.1 10.9 2.1 4.3 3.8 5.7 6.4 4.9 2.5-.8 2.8-6.7.5-12.2-.8-2-1.4-3.7-1.2-3.9.2-.2 6.5 2.4 7.6 3.3.2.1-.2.9-.9 1.7-.6.9-1.2 3.8-1.2 6.5.1 9 6.2 18.7 11.4 17.9 2-.3 2.3-.9 2.6-5.1.3-4.5-1-8.2-6.6-18.9-.2-.3 2 .1 4.7 1 3.4 1.1 4.8 1.9 4.1 2.6-2.9 2.9.6 16.2 6.1 22.9 6.4 7.8 12.8 8.3 11.4.8-.9-4.8-6-14.7-10.2-19.9l-3.5-4.3 2.9.5c8 1.5 7.9 1.4 7.5 5.1-.5 4.6 2.8 11.3 8.3 16.6 5 4.9 6.2 5.6 9.8 6.3 7.6 1.4 4.3-7.9-6.8-19-4-4-6.5-7-5.6-6.9.9.2 3.5.4 5.9.4 3.9.1 4.2.3 3.3 2-3.4 6.3 17.3 19.1 21.9 13.6 1.3-1.6 1-2.2-3-5.8-2.5-2.2-7.2-5.3-10.5-6.9l-6-3 4.5.8c10.6 1.7 17.8.4 20.4-3.8 1.4-2.3.4-3.1-4.1-2.9-5.3.1-7.9.7-12.7 3.1-6.2 3-7.3 2.4-2.5-1.3 4.7-3.6 7.9-8.8 7.9-12.9 0-4.2-3.4-3.6-8.4 1.4-5.4 5.5-7.6 9.1-7.6 12.3 0 2.5-.2 2.6-4.2 2.1-2.4-.2-4.7-.5-5.2-.5-.5-.1.9-1.3 3-2.7 8.2-5.4 14.1-16.7 11-20.9-1.2-1.7-1.7-1.5-6.6 3.1-6.4 6-11.2 12.8-11.9 16.9l-.6 3.1-5-1.1-5-1.1 3.6-1.7c4.8-2.4 9.2-7.1 12.3-13.3 3-5.9 3.2-8.2 1.1-9-4-1.6-20.5 15.5-20.5 21.1v2.4l-4.6-1.6-4.6-1.5 4.9-2.8c11.4-6.5 15.6-20.1 4.9-15.6-4.8 2-11.6 8.4-13.5 12.7l-1.7 3.7-3.4-1.8-3.5-1.8 3.5-1.5c6.8-2.8 10.4-9.6 5.7-10.5-2.9-.6-10.6 3.8-12.2 6.9L400 178l-3.5-1.7c-3.8-1.8-4.6-3.3-1.6-3.3 2.6 0 6.6-3.4 5.7-4.8-1.4-2.3-9.8-.9-11.6 1.9-.6.9-12-9.8-12-11.2 0-.8 2.7-1.3 16-2.9 4.7-.6 11.1-2 14.3-3.2 5.6-2 5.9-2 9.1-.3 4.2 2.3 11 1.6 14-1.5 2.1-2.1 2.1-2.1.2-3.6-1.1-.8-2.7-1.4-3.5-1.4-1 0-.4-.8 1.4-2 2.4-1.6 4-1.8 8.6-1.3 4.7.5 6.6.2 10.2-1.6 6.9-3.3 7.3-7 1.1-9.3-4.7-1.7-2.9-2.9 5.1-3.5 11-.8 20.5-6.2 20.5-11.8 0-3.5-2.7-5-9.1-5-7.3 0-7.8-1.7-1.1-3.5 13.2-3.5 24.7-12.1 24-17.8-.2-2.2-.9-2.8-3.5-3-7.1-.7-26.2 6.5-33.4 12.6-2.8 2.3-3.2 2.4-2.5.7 1.8-4.5 6.4-24.4 7-30 .3-3.3.8-7 1-8.3.3-1.2.1-2.2-.5-2.2-.5 0-.9 1.7-1 3.7l-.1 3.8-.9-3.9C452 55.5 442 46 435.3 46c-2.8 0-3.3.4-3.3 2.4 0 5.6 15.2 21.2 19.8 20.3 2.3-.5 2.4-.4 1.7 5.7-.9 7.6-2 9.9-2.9 6.1-2.7-10.7-17.6-22.5-27.3-21.6-4.2.4.8 8.7 11 18.4 8.1 7.8 11.9 10.1 14.8 9.2 2.3-.8 2.4-1.3-.7 8.7-1.9 6.2-2.2 6.5-3 2.3-1.3-7.3-11.4-18.4-20.3-22.4-8.6-3.8-10.2-.7-4.3 8.4 4.7 7.3 17.1 19.2 21.1 20.2l3 .8-3.2 6.4c-2.6 5.1-3.3 5.9-3.5 4-.2-1.3-1-4.6-1.9-7.3-3.5-10.9-19.3-20.7-19.3-12 0 7 13.6 26.5 17.4 25.1.9-.4 1.6-.4 1.6-.2 0 .6-7.1 10.5-7.4 10.5-.2 0-.3-1.6-.4-3.6-.2-5.1-3.6-11.6-7.1-13.7-2.9-1.7-3-1.7-4.4.3-3 4.3 2.6 20 7.2 20 2 0 1.2 1.5-3.3 5.9l-4.4 4.4.5-4.1c.4-3 .1-4.9-1.2-6.8l-1.7-2.6-2 2c-1.5 1.5-2 3.2-2 6.8.1 2.6.6 5.2 1.2 5.8.5.5 1 1.3 1 1.7 0 2.2-16.2 5.1-45.5 8.2-1.6.2-1.9-.3-1.7-2.4.2-1.9-.5-3.3-2.7-5.2-5-4.2-12.4-6.1-23.3-6.2-8.3 0-10.1.3-12.5 2.1-6.3 4.7-2.3 10.5 9.5 13.9 4 1.2 5.2 1.9 4.1 2.6-1.9 1.2-5.6 1.1-8.2-.2-3.8-2.1-15-2-19.1 0l-3.6 1.9 4.2-5.2c2.4-2.8 4.5-5.3 4.8-5.6.3-.3 6.2-7 13-15 6.9-8 13.3-15.4 14.3-16.5 7.4-8 22.4-29.2 21.4-30.1-.2-.3-2.3 2.4-4.6 5.8-2.3 3.5-5.4 7.9-7 9.8l-3 3.5 1.2-4.2c2.4-9-3-25.5-11.1-33.8-3.9-4-7.7-5.9-10-5-2 .8-.8 9.3 3 20.8 5.3 16.1 11.1 24.6 15.8 22.9 1.2-.4-6 8.6-11.7 14.6-.7.7-7.8 8.7-15.9 17.7-8 9.1-14.7 16.5-14.8 16.5 0 0-.1-3.3-.2-7.3 0-11.2-5.4-20.2-10.8-18.1-3.5 1.3-4.7 11-2.4 18.7 1.5 5 7.1 10.9 9.5 10 .9-.4-.7 2.7-3.8 7.1l-5.4 7.8-.6-5.7c-.8-6.7-2.6-10.5-4.9-10.5-2.9 0-4.3 2.7-4.3 8.3-.1 6.2 2.4 11.7 5.3 11.7 1.8 0 1.7.6-1.7 7.1l-3.8 7.1-.7-13.4c-.7-15-2.5-25.5-7-40.8-2.4-8-3.2-13-3.5-21l-.4-10.5 3.9-1.8c4.1-1.8 6.8-5.6 5.9-8.1-.8-2-5.1-.6-7.8 2.7l-1.9 2.2.2-5.3.2-5.2 3 .5c3.8.7 11-2.8 14-6.9 2-2.7 2-2.8.3-4.1-1-.7-3.1-1.1-4.5-.9-3.9.7-9.3 3.5-9.9 5.1-.8 1.9-2.2 1.6-1.8-.5.2-.9.4-2.8.4-4.2.1-2.4.4-2.5 6.4-2.5 4.7-.1 7.4-.7 11.2-2.7 6.8-3.5 10.3-7.3 8.8-9.6-.8-1.3-2.5-1.7-7.4-1.6-6.7 0-9.6 1.3-15.2 6.3l-2.9 2.6.7-4c1.2-7.2 1.5-7.6 3.8-6.9 8.4 2.8 32.1-6.8 30.1-12.1-1.9-4.8-19.3-1.7-28.1 5.1l-3.6 2.7.7-2.8c.4-1.5 1-4 1.3-5.6.5-2.5.9-2.8 2.7-2.2 3.9 1.3 10.8.3 18.1-2.7 7.8-3.3 12.1-6.9 11.2-9.4-1.6-4.2-19.7-.8-26.6 5-1.6 1.3-3.1 2.4-3.4 2.4-.4 0 .6-3.4 2.9-9.9.3-1.1.7-1.2 1.6-.3 2.6 2.6 10.6.4 18.6-5.1 3.2-2.1 4.2-3.4 4-5-.6-4.4-12-2.7-18.6 2.7-3.8 3.2-5.8 2.9-6-.8-.3-4.2-4-14.7-6.3-17.7-1.5-2-2.1-2.2-3.6-1.3-5.1 3.1-1.5 20.6 5.2 25 1.3.9 3 1.2 3.6.8.9-.5 1-.2.5 1.2-.5 1-1.5 3.9-2.3 6.2l-1.5 4.4-2-5.7c-2.7-8.2-9.6-18.2-13.9-20.6-4.6-2.4-6.2 3-3.4 11.2 3 8.6 13.4 19.6 17.2 18.2 1.2-.5 1.5-.2 1.1.9-.4.8-1 3.7-1.4 6.3l-.7 4.8-2-3.9c-4.3-8.4-11.5-16.7-16.9-19.5-3.4-1.7-3.8-1.7-5.3-.3-5.1 5.1 12.7 28.1 20.8 26.8 1.7-.2 1.8.2 1.2 3.4-1.3 7.4-1.6 7.8-3.2 4.4C270.1 63.5 261 56 256.2 56c-1.7 0-2.6-.8-3.3-3-1.3-3.6-4.4-4.8-6.9-2.5-2.9 2.6-5.1 10.6-4 14.5.5 1.9.8 3.5.6 3.8-.2.2-2.5-1.6-5.1-4-4.4-4-4.5-4.3-2.4-4.8 3.9-.9 7.2-8.9 7.2-17-.1-13-7.2-21.6-11.9-14.4-2.5 3.8-3.1 18.4-1.1 25.4l1.5 5.2-2.6-2.5c-6.6-6.1-29.3-19.6-40.3-24-1.2-.5-1.2-.7 0-1.5 3.2-2.3.2-13-5.2-19.1-5.5-6-12.8-9.6-15-7.4zm89.2 64.8c0 .5-.6 2.1-1.4 3.5-.8 1.4-1.5 4.1-1.5 6l-.1 3.5-2.6-5.1-2.6-5.2 2.1-2.7C252 68 253 66 253 65.1c0-1.2.6-.9 2 .9 1.1 1.4 1.9 2.9 1.9 3.5zm8.6 7.1c1.4.9 4 1.7 5.8 1.9 1.7.1 3.1.6 3 1.1-.1.5-.4 2.7-.8 4.8l-.6 4-1.9-3.1c-1-1.7-3.4-4.3-5.4-5.8-5-3.8-5-6.1-.1-2.9zm-2.6 13.1c2.2 1.7 4.7 2.7 6.8 2.7 3 0 3.3.2 2.9 2.5-.2 1.5-.5 3.9-.5 5.6l-.1 2.9-1.7-2.4c-2.5-3.6-4.6-5.1-6.5-4.6-1.2.3-2.7-1.1-4.8-4.5-2.4-4-2.7-4.9-1.3-4.9.9 0 3.2 1.2 5.2 2.7zm191 18.8c5.2 1.3 4.4 2.4-4.9 6-3.5 1.4-7.2 3.2-8.2 4.2-1.2 1-.3-1.5 2.4-6.9 3.8-7.7 4.3-8.3 5.3-6.4.7 1.3 2.7 2.5 5.4 3.1zm-182.8-.6c.3 1.5.5 11.1.2 11.1-.4 0-5.3-11-5.3-12 0-.9 4.9 0 5.1.9zm171 18.6c2.1.7 2.5 2 .9 3-.9.5-11.5 3.5-12.5 3.5-.2 0 1.5-2.7 3.8-6.1 4-5.8 4.2-5.9 5-3.5.5 1.4 1.7 2.8 2.8 3.1zm-301.6 7.8l2.4 8-2.4-2.4c-1.9-2-2.5-3.8-2.9-9.9-.3-4.1-.3-6.6 0-5.6.4 1.1 1.7 5.5 2.9 9.9zm288.5 5.4c0 1-7.5 5.3-9.3 5.3-.4 0 1.2-2 3.5-4.4 4.1-4.1 5.7-4.4 5.8-.9zm-280.6 18.2c-.7.8-4.7-3.4-5.9-6.3-1-2.2-1-3.6-.2-5.4 1-2.2 1.3-1.9 3.8 4.5 1.5 3.7 2.5 7 2.3 7.2zm4.5 8.3l1.1 3.3-2-2.4c-1.1-1.3-2-3-2-3.8 0-2.3 1.7-.6 2.9 2.9zm159.2 2.4l3 2.2-3.4 2.1c-1.9 1.1-4.1 2.1-4.8 2.1-.8 0-3.3.9-5.7 2-4.8 2.2-4.8 2.2 2.2-7.4 3.8-5.2 5.2-6.4 5.4-5 .2 1 1.6 2.9 3.3 4zM298 185.1c0 .3-2.9 4.9-6.5 10.4-3.6 5.4-6.5 9.6-6.5 9.3 0-1 4.9-12.6 7.5-18 2.5-5 3-5.5 4.1-4 .8.9 1.4 1.9 1.4 2.3zm-12.7 51.2c1 1.5 2.5 2.7 3.4 2.7 1.5 0-.9 2.7-7.4 8.3-2 1.8-2 1.7-2.2-4.5 0-3.5-.2-7.7-.3-9.5-.1-1.7.7-4.4 1.8-6l1.9-2.8.5 4.6c.3 2.5 1.3 5.8 2.3 7.2zM164 254.6c1.7 4.1 3.4 8.3 3.7 9.2.5 1-.5.7-2.9-1.1-7.7-5.9-23.2-8.6-35.5-6.3l-4.3.8V250l5.3.6c2.8.3 7.2 1 9.6 1.4 5.3 1 15.5.4 18.2-1 1-.6 1.9-1.7 1.9-2.5 0-2.8.8-1.5 4 6.1zm111-1.9c0 1.1-1.2 2.6-3.2 4.2-1.6 1.2-1.7 1.1-.7-1.8.9-2.7 3.9-4.5 3.9-2.4zM144.1 271c13.6 2.5 23.9 1 23.9-3.4 0-1.9.2-1.8 1.4.6.8 1.4 2.3 5 3.4 8 1.1 2.9 2.4 6.2 2.8 7.3.7 1.7.3 1.6-2.4-.7-5.4-4.5-13.7-7.1-22.8-7.2-6.7-.1-8.6.2-10.3 1.8-3.4 3.1-2.7 6.1 2.2 9.4 10.7 7.5 27.5 9.3 32.9 3.7l2.2-2.3 2.8 6.6c1.5 3.7 2.8 7 2.8 7.4 0 .4-2.3-.5-5.1-1.9-5.8-3-15.4-3.8-18.3-1.4-2.8 2.3-2 5.8 1.9 8.3 4 2.7 4.2 3.2 1.5 7.6-1.1 1.7-2.3 5.1-2.6 7.5-1 6.3-2.3 8-2.4 3 0-9.7-3.8-20.7-6.8-20.1-7.6 1.5-3.8 26.8 4 26.8 2.1 0 2 1.2-.9 8l-1.5 3.5-1.3-4.5c-2.7-10-10.9-23-14.5-23-2.5 0-3.2 1.3-3.2 6.6 0 8.8 8.9 22.8 15.4 24.1 1.5.3 2.8.6 2.8.7 0 .1-.7 2.7-1.6 5.7l-1.7 5.4-1-3c-2.1-6.2-11.9-18.5-16.7-21-1.7-.9-3.1-1-4.3-.4-7.2 4.1 10.9 29.3 19.9 27.6 1.9-.3 2.3-.1 2 1.2-.3.9-.8 3.6-1.1 6l-.7 4.5-1.5-3c-2-3.8-9-11.2-12.5-13-9.2-4.8-11 3.5-2.8 12.8 4.2 4.8 10.9 8.3 14.1 7.3 1.7-.6 1.9-.1 1.9 4.7v5.3l-3-3.6c-3.3-4.1-9-7.2-11.4-6.3-2.2.8-2 5 .4 8.4 2.5 3.5 8.4 6.4 11.6 5.6 2.3-.6 2.4-.5 2.4 4.8v5.4l-3-3c-2.5-2.4-3.7-2.9-5.9-2.5-2.7.6-3 .2-6.9-8.1-7.9-17-10.3-30-10.1-55.7.1-9.9.8-23.9 1.5-31 .7-7.2 1.5-16.8 1.9-21.5.3-4.7.8-9.9 1.1-11.6l.6-3.1 6.2 2.3c3.5 1.2 9.2 2.8 12.7 3.4zm45.3 43.8l3.7 7.3-2.8-1.4c-6.6-3.4-13.3-3.2-13.3.3 0 1.3-.9 2.1-2.5 2.5-1.4.3-3.7.8-5.2 1.1-1.5.3-4 1.5-5.5 2.6-4.6 3.2-4.5 1.3.1-2.8 2.3-2.1 5.4-5.7 6.8-8 2.4-3.7 3.2-4.2 7.2-4.7 3.2-.3 5-1.2 6-2.6.7-1.2 1.5-2 1.6-1.9.2.2 1.9 3.6 3.9 7.6zm-114-1.8c.8 0 4 2.9 3.4 3.1-.2 0-1.9.3-3.8.6-4.7.6-9.3 2.9-12.9 6.4-3.2 3-4 6.3-1.8 7.2 5 1.9 21.2-5.2 22.8-10.1.3-.8 1.6-.3 3.9 1.7l3.5 3-3.3.1c-6.9 0-14.7 5.8-11.1 8.1 3.4 2.1 11.6.5 15.4-3.1 2-1.9 2.1-1.9 4.8 1.5l2.8 3.5-3.9-.2c-4.5-.1-6.3.7-5.6 2.7 1.1 2.7 8.2 4 11.4 2 1-.6 4.4 4.4 7.5 11 1 2.2 2.2 4.3 2.7 4.6.4.3 1.5 4.8 2.4 9.9 1.2 7.8 4.6 19.9 7.9 28.2.6 1.6.1 1.8-4.6 1.8-13.2 0-22.3-3.1-30.3-10.1-7.6-6.7-11-11.7-10.8-15.6.3-4.5-.6-7.3-2.4-7.3-.8 0-1.8.9-2.2 2.1-.7 1.7-1 1.8-2 .7-.8-1.1-.7-2.5.6-6 1.9-5.5.9-10.1-2.4-10.6-2-.3-4.4 3.1-4.4 6.3 0 .8-.4 1.5-1 1.5-1.3 0-1.2-1.4.4-7.5 1.9-7.3.8-15-2.5-16-2.7-.9-4.7 1-5.4 4.9-1 6.1-1.4 8.1-1.4 9.5-.1 1-.4 1.1-1.5.2-1.1-1-1.2-1.9-.2-5.4.7-2.3 1.2-6.8 1.1-9.9l-.3-5.7 6.9-4.1c7.8-4.6 11.9-8.3 11.9-10.7 0-1.5.2-1.5 1.8 0 1 1 2.2 1.7 2.6 1.7zm216.6 2.3c0 .7.9 1.8 2 2.5 3.2 2 2.3 2.7-3.5 2.7-3 0-5.5-.2-5.5-.4 0-.9 5.4-6.1 6.2-6.1.4 0 .8.6.8 1.3zm72 4.8c0 .5-1.2.9-2.7.9-2.7-.1-2.7-.1-.9-1.5 1.9-1.4 3.6-1.2 3.6.6zm-164.5 11.1c2.2 2.9 5.8 7.4 8.2 10 4.3 4.7 5.1 6.6 3.4 8.3-1.4 1.6-11 23.1-15.5 35-6 15.4-10.1 28.2-13.1 41-1.4 6-2.9 12.3-3.3 13.9l-.7 3-7.5-6.4c-4.1-3.5-10.5-9.3-14.1-12.9-5.9-5.8-6.7-7.2-7.4-11.6-.5-3.5-.3-5.1.5-5.3 2.6-.9 7-5.8 7.2-8.2.4-3.6-2.4-3.6-6.1 0l-3.1 3.2v-5c0-4.7.1-4.9 2.5-4.5 4.6.9 13.5-5.7 13.5-10 0-3.5-9-2-13.6 2.4l-2.4 2.2v-4.7c0-4.1.2-4.6 1.8-3.8 2.6 1.4 8.2.4 13.7-2.4 6.3-3.1 7.9-4.3 9.4-7.1 1-1.9.8-2.4-1.3-3.8-3.7-2.5-12.4-.2-19.3 5.1-3.5 2.7-3.7 2.4-2.7-3.8.4-2.3 1.1-3.5 1.7-3.1 3.7 2.3 22.3-3 27.9-7.9 3.2-2.7 3.2-2.8 1.4-4.2-4.1-3.3-19-.3-26.5 5.2-2.9 2.2-3.3 2.2-2.8.6.3-1.1.9-3.6 1.3-5.7.5-2.8 1-3.5 1.7-2.8 3.5 3.5 27.5-2.7 29.4-7.5 2.2-5.7-15.4-5.4-24.8.5l-4.6 2.8 2-5.4c1.6-4.3 2.2-5.1 3.4-4.2 2.1 1.8 10.8.3 17.4-3 5-2.5 6.8-2.9 10.8-2.4 3.6.4 5.1.2 6.2-1 .8-.9 1.4-1.6 1.4-1.7.1 0 1.8 2.4 4 5.2zm-168.1 7.1c1.7 1.3 1.6 1.4-1.7 1.5-3.9.1-5-.7-4.1-3.2.6-1.6 1.9-1.3 5.8 1.7zm115.6 71v3l-2.5-2.3c-3.1-2.9-3.1-3.5 0-3.6 2.2-.2 2.5.2 2.5 2.9zm257.7 14.3c-1.7 4.5-1.8 6-.9 7.5 1 1.6.9 1.9-.5 2-1 0-3.8.2-6.3.5l-4.5.5 2.6-2.3c1.5-1.3 4.5-4.9 6.8-8.1 2.3-3.1 4.3-5.7 4.5-5.7.2 0-.6 2.5-1.7 5.6zm-15.5 10.1c.8 1-.3 1.3-5.1 1.3-3.3 0-6.1-.2-6.1-.5 0-.2 2.1-1.6 4.8-2.9 4.2-2.1 4.7-2.2 5.1-.8.2 1 .8 2.3 1.3 2.9z"/><path d="M293.7 7.7c-3.6 3.8-5.7 9.3-5.7 15v4.7l3-2.9c3.6-3.5 9-13.7 8.5-16.2-.2-1-.4-2.1-.4-2.6-.2-1.6-2.9-.6-5.4 2zM211.4 9.5c-3.5 5.3-.1 30.6 4.9 36.9 2.9 3.6 5.1 2.7 7.3-3 3.5-9.2 1.1-25.7-4.8-32.8-3.5-4.3-5.2-4.5-7.4-1.1zM451.9 34.7c-2.3 5.9.9 24.3 4.2 24.3 1.9 0 4-6.4 4-12 .1-6.7-3-15-5.6-15-.8 0-2 1.2-2.6 2.7zM468.5 48.5c-13.9 14.5-15.2 26.8-2.1 19.1C477.1 61.3 485 42 476.8 42c-1.2 0-4.5 2.6-8.3 6.5zM377.8 51.7c-4.1 4.7-7.9 17-8 25.7 0 2.8-.7 6.4-1.5 7.9-2.2 4.4-1 4.2 1.5-.1 1.2-2.1 3.2-4.4 4.4-5.1 5-2.6 9.8-13.4 9.8-21.9 0-7.3-2.9-10.3-6.2-6.5zM348.7 57.7c-1.8 1.8-.8 7.4 3.1 17.8 3.6 9.8 7.2 15 10.2 15 3.4 0 4.9-3.6 4.4-10.6-.6-7.5-3.3-13.8-8.2-18.7-4.5-4.5-7.4-5.6-9.5-3.5zM109.7 59.7c-1.6 1.5-.6 9.7 1.8 14.6 4.4 9.4 16.1 18.5 18.6 14.6 1.5-2.4 1-5.7-1.7-10.6-7.4-13.4-15.7-21.6-18.7-18.6zM481.9 63.4c-8.6 3-24.8 14.9-27.3 19.9-1.5 3-1.4 3.3.4 4.8 4.5 3.9 20.1-2.1 28.1-10.8 3.2-3.3 6.9-9.3 6.9-11 0-1.3-2.7-4.3-3.8-4.3-.4.1-2.3.7-4.3 1.4zM398 72.5c-8.9 2.8-24.4 11.9-28.5 16.6-3 3.6-3 4.2-.8 6.4 2.6 2.6 13.3 1.6 20.1-1.9 16.2-8.2 23.7-25.7 9.2-21.1zM203.4 79.1c-1.7 1.9-1.9 3.8-1.9 16.3.1 11.9.4 14.7 2 18.1 2.4 4.7 4.5 5.4 7.4 2.3 6.1-6.5 6-25.3-.1-34.1-3-4.2-5.2-5-7.4-2.6zM318.1 81.2c-3.4 9.2 7 41.6 14.5 45 2 1 2.8.8 4.2-.6 2.2-2.1 2.7-15.2.8-22.2-4.3-16.2-16.5-30.2-19.5-22.2zM226.8 91.9c-4.5 4.5-11.8 26.7-12.1 36.7-.3 10 3.2 11.5 10 4.5 10.3-10.6 15.1-33.8 8.5-41.4-1.9-2.1-4.2-2.1-6.4.2zM41.4 97.8c-.6.4-1.3 1.4-1.7 2.4-1.5 4.3 7.1 24.9 12.1 28.8l2.7 2.1 1.8-2.3c3.7-4.4.6-18.1-5.8-25.6-3.1-3.7-7.6-6.4-9.1-5.4zM63.5 100.6c-1.8 1.3-2 2.6-2 13.2.1 20.6 5.1 32.9 10.7 26.4 5.1-5.8 5.3-24.7.3-34.2-1.5-2.9-5.2-7-6.3-7-.4 0-1.6.7-2.7 1.6zM378.6 101.6c-16.7 3-24.6 6.5-24.6 10.9 0 8.5 27.8 10 42.5 2.2 4.2-2.2 9.5-7.6 9.5-9.8 0-4.9-10.9-6.3-27.4-3.3zM306.3 105.7c-2.7 4-2.3 17.9.7 25.6 2.4 6.3 6.9 12.2 9.8 12.9 4.5 1.2 7.4-4.6 7.1-13.7-.7-18-11.8-33.6-17.6-24.8zM23.2 113.8c-2.9.4-3.9 2.7-2.1 4.8 2.4 3 13.1 7.6 18.8 8.1 3.1.3 6.8 1.4 8.4 2.5 1.5 1.1 2.7 1.5 2.7 1s-1.1-1.5-2.5-2.2c-1.4-.7-3.4-2.8-4.4-4.6-3.3-5.5-14.4-10.6-20.9-9.6zM349.6 124.1c-6.6 1-10.3 2.7-10.9 4.9-2.1 8.1 23.6 15.3 40.7 11.3 10.4-2.4 14.9-7.9 9.2-11.6-6.3-4.2-26.1-6.5-39-4.6zM35.2 131c-7.2 1.7-13.9 8.4-11.8 11.9 1.5 2.4 21-1.6 26.4-5.4 2.7-2 2.8-3.6.4-5.8-2-1.8-9-2.1-15-.7zM350.1 173.6c-4 3.4-10 13.5-11.7 19.9-1.9 6.9-1.8 14.9.1 16.5 6.7 5.6 23-26.7 18.9-37.4-.9-2.4-3.8-1.9-7.3 1zM367 180.6c-8.1 7.6-13.3 20.2-9.6 23.3 2.1 1.7 5.5 0 10.3-5.2 6.4-7 10-14.9 9.5-21-.3-3.3-5-2-10.2 2.9zM33.1 183.4c-1.4 1.7-.6 7.4 2 13.8 6.2 15.8 11.6 21.4 14.8 15.4 2.8-5.1-2-20.7-8-26.3-3.5-3.2-7.5-4.5-8.8-2.9zM55.5 187c-4.3 8.3.7 40 6.3 40 9.5 0 9.6-32.1.1-40.8-3.1-2.9-4.6-2.8-6.4.8zM152.2 187.7c-2.4.9-3.3 5.6-3.3 16.9.1 12.2 2.1 20.8 5.4 22.8 1.5.9 2.3.6 4.3-1.9 5.2-6.4 5.9-22 1.4-31-2.6-5-5.5-7.6-7.8-6.8zM77.5 198.7c-3.4 3.4-5.5 12.2-6 25.4-.5 10.5.7 15.5 3.8 16.5 7.6 2.4 14.8-25.1 9.9-37.7-1.1-2.8-3.8-5.9-5.2-5.9-.5 0-1.6.7-2.5 1.7zM15.5 199c-8 1.6 5 11.4 16.8 12.7 2.9.3 6.2 1.2 7.4 1.9 3.7 2.3 3.6 1.6-.2-2.4-2-2-4.6-4.8-5.8-6-4.2-4.5-12.5-7.3-18.2-6.2zM173.3 203.3c-7.3 10.8-13.9 38.7-10.1 42.5 4.7 4.7 14.8-6.8 19.2-21.5 1.9-6.7 1.5-18.2-.8-21.8-2.3-3.5-5.6-3.2-8.3.8z"/><path d="M26.8 216.4c-5.1 1.8-8.4 4.1-10.4 7.1-1.4 2.1-1.4 2.8-.3 4.1 3.2 3.9 28.9-3.3 28.9-8.1 0-4.1-10.4-5.9-18.2-3.1zM498.5 220c-1 3.1.3 7.6 4.6 16.7 4.3 9 7.1 11.5 9.7 9 2.2-2.3 1.9-10.3-.5-15.8-2-4.5-7.4-10.9-9.2-10.9-.5 0-1.6-.3-2.4-.6-1-.3-1.8.2-2.2 1.6zM92.4 222.5c-6.2 4.3-10.2 25.6-6 32 2 3.1 4.8 2.3 8.6-2.3 3.9-4.7 6.1-11.6 6.1-19 .1-10-3.5-14.4-8.7-10.7zM192.5 224.6c-3.6 1.8-6 4.3-10.4 10.7-8.2 12-13.7 29.7-9.7 31.3 5.3 2 15.9-7.7 22.1-20.2 4.7-9.4 5.9-18.9 2.8-21.6-1.7-1.6-2.1-1.6-4.8-.2zM319 253.7c-.7 1.6-1.5 6.3-1.8 10.6-.2 4.2-.9 8-1.3 8.3-.5.3-.9-.7-.9-2.3-.1-5.9-7.8-15.4-11.5-13.9-1.3.5-1.5 1.3-1 3.8.9 4.3 6.7 14.9 8.5 15.8.8.4 2.9 1.5 4.7 2.4 4.1 2.1 6.8 2 11.9-.5 8.4-4 14.4-13.7 9.2-14.7-2.5-.5-10.3 3.6-15.4 8.1-4.8 4.2-5.9 3.6-1.9-1.1 4.6-5.4 6.7-13 4.9-17.6-1-2.5-4-1.9-5.4 1.1zM196.4 254.9c-8 3.6-17.4 18.2-17.4 26.9 0 3.6.4 4.4 2.5 5.4 3.2 1.4 6.2-.1 11.8-5.6 5-5.1 8.2-10.1 10.3-16.5 2.9-9.1-.1-13.4-7.2-10.2zM20.9 290.4c-3.3 1.6-3.3 3.2-.2 4.4 4.6 1.9 9.5 2.4 15.7 1.6l5.9-.6-5.1-3c-5.6-3.2-12.7-4.2-16.3-2.4zM582.4 318.8c-7.1 4.8-27.7 18.8-45.9 31.1-18.1 12.3-33.7 23-34.5 23.7-1.2 1.2 4.5 1.4 38.5 1.4 81.3.1 144.9-.1 145.3-.5.8-.7-87.3-64.5-89.2-64.5-.7 0-7 4-14.2 8.8zM6 326c-6.7 1.6 2.3 7.1 11.2 6.8 4.6-.2 4.7-.2 3.1-2.1-3.4-3.7-9.8-5.8-14.3-4.7zM497.2 378.2c-.6.6-.8 1.7-.5 2.4.4 1.2 16.4 1.4 99.9 1.4H696v-5h-98.8c-69 .1-99.2.4-100 1.2zM497 384.4c-.5.5-.6 1.5-.3 2.2.4 1.2 16.4 1.4 99.9 1.4H696v-4.5h-99c-55 0-99.5.4-100 .9zM504.8 390.7c-.1.5-.2 26.8-.2 58.5-.1 57.1-.1 57.8 1.9 57.9 1.1.1 13.9.3 28.5.5 14.6.1 27.5.3 28.8.3 1.7.1 2.2.7 2.2 2.7 0 1.8.6 2.8 2.1 3.1 1.8.5 2 1.1 1.4 4.2-.4 2-.6 4.9-.5 6.6.1 1.6.4 37.4.6 79.5.3 42 .7 76.7 1 77 .7.7 55.1.7 55.8 0 .3-.4.7-34.8 1-76.5.2-41.8.5-77.8.6-80 0-2.2-.2-5.4-.5-7.1-.6-2.6-.3-3.2 1.4-3.7 1.5-.3 2.1-1.3 2.1-3.1 0-1.4.3-2.6.8-2.7.4 0 13-.2 27.9-.3 15-.1 27.6-.6 28-1 .8-.7 1.2-113.1.5-115.4-.3-.9-19.6-1.2-91.8-1.2-50.3 0-91.5.3-91.6.7zm175.9 7.7c.9.8.9 95.3.1 96.1-.7.8-59.7.7-60.9 0-.5-.4-.9-1.5-.9-2.6 0-1-1.3-7.4-2.9-14.2-1.6-6.7-5.2-22.3-8.1-34.7-2.8-12.4-5.4-23.3-5.7-24.3-.4-1.5-1.3-1.8-4.4-1.5-3 .3-3.9 0-3.9-1.2 0-.9-.6-2.5-1.4-3.6-1.3-1.8-2.4-2-9.1-1.8-4.3.1-8.2.7-8.8 1.3-.7.7-1.1 14.9-1.3 41.3-.2 45.9-.1 41.8-1.4 41.8-.7 0-1-14.3-1-40.9v-41l-2.2-.7c-3.3-1-7.7-.7-9.4.7-1.2 1-1.4 7.7-1.4 41.7 0 22.3-.2 40.3-.4 40.1-.3-.2-.6-17.1-.8-37.4l-.4-37-10.7-.3c-9.4-.2-10.8 0-11.4 1.4-.4 1-.7 17.9-.7 37.6l-.1 35.8H511v-48.3c0-26.6.2-48.6.4-48.8.8-.8 168.5-.3 169.3.5zM600.4 469c2.4 10.7 4.7 21 5.1 22.7l.7 3.3h-6c-4.9 0-6-.3-6.4-1.8-.3-1.6-.2-35.3.2-45.7.2-5 .2-5 1.1-1.5.5 1.9 2.9 12.3 5.3 23zm-31.9 39c.3.5.1 1-.4 1-.6 0-1.1-.5-1.1-1 0-.6.2-1 .4-1 .3 0 .8.4 1.1 1zm61.5 0c0 .5-.5 1-1.1 1-.5 0-.7-.5-.4-1 .3-.6.8-1 1.1-1 .2 0 .4.4.4 1z"/><path d="M514.3 416.1c-2 .7-2 1.3-1.8 38.1.2 20.5.3 37.6.4 38 .2 1.4 16.9.9 17.8-.5 1.2-1.9 1-74.7-.2-75.5-1.4-.9-13.7-1-16.2-.1zM422.7 424.4c-5.1 1.9-11.6 6.2-11.7 7.7 0 1.3 11.6.6 14.5-.8 3.8-1.9 7.5-5.3 7.5-6.9 0-2.1-4.6-2.1-10.3 0zM299.8 473.1c-1.2.7-1.8 3.1-2.3 9.6-.4 4.9-.9 9.5-1 10.3-.2.8-.6 6.8-1 13.3-.4 6.4-1.1 12-1.6 12.3-.5.3-2.7-.8-4.8-2.5-5.3-4.2-10.4-4.3-12.5-.3-4.1 7.9-4.9 14.8-4.3 38.2l.6 22.6-3.4 2.7c-3.3 2.6-3.5 3.1-3.5 9 0 6.5 1.1 8.7 4.2 8.7 1.9 0 1.9.1 3.8 11.3.6 3.8 2.4 10.5 4 15 3.5 9.5 3.7 14.1 1.1 26.2-2.2 10.3-2.8 13.9-3.7 25-.3 4.4-1.2 9.2-1.9 10.7-.8 1.6-.9 3-.4 3.4.5.3.9 3 .9 6v5.4h11v-5.8c.2-18.2 4-52.4 6.1-54.7 2.6-2.7 4.3 7.9 4.3 27.2.1 6.8.4 12.3.9 12.4.9.1 5.1.1 8 0 2-.1 2.2-.5 2-5.8 0-3.2-.3-7.2-.6-8.8-.3-1.7-.8-7.1-1.2-12-.3-5-1.3-11.5-2.2-14.5-.8-3-1.7-7.7-1.8-10.5-.2-4.4 3.7-31 4.7-32.1.7-.7 177.6-.9 178.3-.2.3.3.9 2.1 1.1 4 .3 1.8 1.4 8 2.4 13.8 2.1 11.4 2 17.1-.3 25.2-.9 2.9-1.8 8.9-2.2 13.3-.3 4.4-.8 9.8-1.1 12-.4 3.5-.7 12-.5 15 .1.9 1.7 1 9.2.6 1.3-.1 1.5-1.6 1.4-9.4-.2-9.4 1-25.5 2.1-28.9 2.9-9.1 8.1 24.2 8.3 53.4l.1 5.8h5.5c3 0 5.5-.3 5.5-.8.5-8.3.5-13.1-.1-14.7-.3-1.1-.9-5.4-1.3-9.5-.8-9.3-2.2-18.2-4.2-28-2.2-10.3-1.9-14.2 1.5-23.5 2.7-7.5 4.2-13.7 5.6-22.8.4-2.6 1.1-3.7 2.3-3.7 3.1 0 4.2-2.2 4.2-8.7 0-5.9-.2-6.4-3.5-9l-3.5-2.8.6-22.5c.6-21.2.5-23-1.5-30.5-1.2-4.3-2.7-8.5-3.3-9.2-1.9-2.4-8-1.5-11.8 1.7-1.9 1.7-3.9 3-4.5 3-.7 0-1.2-2.2-1.4-5.5-.1-3-.3-6.2-.5-7.2s-.7-6.1-1-11.3c-1-14.2-1.7-20.4-2.5-21.3-1.3-1.4-7.5-1.7-10.4-.6-1.5.7-3 2.2-3.3 3.5l-.6 2.4H313.2l-.6-2.4c-.9-3.5-8.9-5.7-12.8-3.5zM477 513.7c.1 1.5.3 4.5.6 6.7l.6 3.8-47.9-.7c-43-.6-48.1-.5-49.2.9-1.2 1.4-5.6 1.6-35.7 1.6H311v-6.9c0-4.6.4-7.1 1.3-7.4.6-.2 38-.5 83-.6l81.7-.2v2.8zm-191.3 10.4c.6.6 2.6 1.4 4.5 1.8 3.2.7 3.3.9 3.2 5.1-.2 17.2-2.4 36-4.2 36-1.2 0-3.1-3.7-3.2-6.1 0-5.8-1.3-9.1-3.8-10l-2.5-1 .6-11.7c.3-6.4.9-12.5 1.2-13.5.8-1.9 2.6-2.2 4.2-.6zm221.4-.4c0 .5.3 1.7.5 2.8.3 1.1.8 6.7 1.1 12.5.5 10.5.5 10.6-1.9 11.7-2.5 1.1-3.8 4.5-3.8 10.2 0 1.4-.9 3.7-1.9 5l-1.8 2.4-1.2-6.4c-1.4-7.9-2.6-21.4-2.6-29.4 0-5.8.1-5.9 3-6.5 1.7-.4 4-1.2 5-1.8 2.4-1.3 3.5-1.5 3.6-.5zM395 530.6c.3 1 .5 2.5.4 3.1-.1.7-.2 2.6-.3 4.3l-.1 3h-13v-5.8c0-3.2.2-6.1.5-6.3.2-.3 3-.4 6.1-.4 4.7.1 5.9.5 6.4 2.1zm62.7-.7c.5.3.9 3.2.9 6.4l-.1 5.8-27-.4c-14.8-.3-27.1-.6-27.2-.6-.2-.1-.3-2.8-.3-6.2v-6l26.4.2c14.5.1 26.8.4 27.3.8zm26 0c1.9.1 2.1.6 1.8 4.8-.2 2.7-.3 5.5-.4 6.3-.1 1.2-1.7 1.5-8.8 1.4l-8.8-.2-.1-4.3c-.1-2.4 0-5.3.3-6.4.4-2.1 1.8-2.2 16-1.6zm-117.4 24c.4.1.6 4 .5 8.8l-.3 8.7-7-.1c-3.8-.1-7.8-.2-8.7-.2-1.6-.1-1.8-1.2-1.8-8.5 0-8 .1-8.5 2.3-8.8 1.7-.2 11-.2 15 .1zm83.5 1.6c1.1 1.1.9 15.5-.1 16.2-1.4.8-61.8.3-70.5-.6-1-.1-1.3-2.1-1.1-7.9.1-4.2.4-8.1.7-8.6.5-.9 70-.1 71 .9zm36 6.5c.5 11.2 1 10.8-12 10.5-6.2-.1-11.5-.3-11.8-.3-.3-.1-.5-2.6-.4-5.5.1-2.8.2-6.7.3-8.5l.1-3.3 11.8.3 11.7.3.3 6.5zm-139-.9v3.9l-13.9.1c-27.6.2-25.1.6-24.7-3.9l.3-3.7 7.5-.5c4.1-.3 12.8-.4 19.2-.2l11.7.3-.1 4zm27.9 4.1c-.3.8-.6.5-.6-.6-.1-1.1.2-1.7.5-1.3.3.3.4 1.2.1 1.9zm-81.3 31.7c1.1.1 0 15.1-1.4 20.3-2.3 8.2-5.2 5.5-7-6.5-2-13.8-1.9-13.6-.2-13.9 1.5-.3 5.7-.2 8.6.1zm212 .2c.3.4-.5 8.3-1.9 16.9-2.1 13.5-6.6 9-8.1-8-.5-6.3-.4-8.4.7-9 1.2-.8 8.6-.7 9.3.1z"/></svg>